<!--?xml version="1.0" encoding="us-ascii" standalone="no"?--><svg xmlns="http://www.w3.org/2000/svg" xmlns:xlink="http://www.w3.org/1999/xlink" contentstyletype="text/css" height="473px" preserveAspectRatio="none" style="width:1023px;height:473px;background:#FFFFFF;" version="1.1" viewBox="0 0 1023 473" width="1023px" zoomAndPan="magnify"><defs></defs><g><rect fill="#FFFFFF" height="262.1953" style="stroke:#181818;stroke-width:1.0;" width="10" x="204" y="112.4297"></rect><rect fill="#FFFFFF" height="87.3984" style="stroke:#181818;stroke-width:1.0;" width="10" x="327" y="141.5625"></rect><rect fill="#FFFFFF" height="29.1328" style="stroke:#181818;stroke-width:1.0;" width="10" x="463" y="170.6953"></rect><rect fill="#FFFFFF" height="145.6641" style="stroke:#181818;stroke-width:1.0;" width="10" x="592.5" y="228.9609"></rect><rect fill="#FFFFFF" height="87.3984" style="stroke:#181818;stroke-width:1.0;" width="10" x="770.5" y="258.0938"></rect><rect fill="#FFFFFF" height="29.1328" style="stroke:#181818;stroke-width:1.0;" width="10" x="930.5" y="287.2266"></rect><line style="stroke:#181818;stroke-width:0.5;stroke-dasharray:5.0,5.0;" x1="24" x2="24" y1="81.2969" y2="392.625"></line><line style="stroke:#181818;stroke-width:0.5;stroke-dasharray:5.0,5.0;" x1="208.5" x2="208.5" y1="81.2969" y2="392.625"></line><line style="stroke:#181818;stroke-width:0.5;stroke-dasharray:5.0,5.0;" x1="331.5" x2="331.5" y1="81.2969" y2="392.625"></line><line style="stroke:#181818;stroke-width:0.5;stroke-dasharray:5.0,5.0;" x1="468" x2="468" y1="81.2969" y2="392.625"></line><line style="stroke:#181818;stroke-width:0.5;stroke-dasharray:5.0,5.0;" x1="597" x2="597" y1="81.2969" y2="392.625"></line><line style="stroke:#181818;stroke-width:0.5;stroke-dasharray:5.0,5.0;" x1="775.5" x2="775.5" y1="81.2969" y2="392.625"></line><line style="stroke:#181818;stroke-width:0.5;stroke-dasharray:5.0,5.0;" x1="935" x2="935" y1="81.2969" y2="392.625"></line><text fill="#000000" font-family="sans-serif" font-size="14" lengthAdjust="spacing" textLength="32" x="5" y="77.9951">User</text><ellipse cx="24" cy="13.5" fill="#E2E2F0" rx="8" ry="8" style="stroke:#181818;stroke-width:0.5;"></ellipse><path d="M24,21.5 L24,48.5 M11,29.5 L37,29.5 M24,48.5 L11,63.5 M24,48.5 L37,63.5 " fill="none" style="stroke:#181818;stroke-width:0.5;"></path><text fill="#000000" font-family="sans-serif" font-size="14" lengthAdjust="spacing" textLength="32" x="5" y="404.6201">User</text><ellipse cx="24" cy="416.4219" fill="#E2E2F0" rx="8" ry="8" style="stroke:#181818;stroke-width:0.5;"></ellipse><path d="M24,424.4219 L24,451.4219 M11,432.4219 L37,432.4219 M24,451.4219 L11,466.4219 M24,451.4219 L37,466.4219 " fill="none" style="stroke:#181818;stroke-width:0.5;"></path><rect fill="#E2E2F0" height="30.2969" rx="2.5" ry="2.5" style="stroke:#181818;stroke-width:0.5;" width="53" x="182.5" y="50"></rect><text fill="#000000" font-family="sans-serif" font-size="14" lengthAdjust="spacing" textLength="39" x="189.5" y="69.9951">Client</text><rect fill="#E2E2F0" height="30.2969" rx="2.5" ry="2.5" style="stroke:#181818;stroke-width:0.5;" width="53" x="182.5" y="391.625"></rect><text fill="#000000" font-family="sans-serif" font-size="14" lengthAdjust="spacing" textLength="39" x="189.5" y="411.6201">Client</text><rect fill="#E2E2F0" height="30.2969" rx="2.5" ry="2.5" style="stroke:#181818;stroke-width:0.5;" width="113" x="275.5" y="50"></rect><text fill="#000000" font-family="sans-serif" font-size="14" lengthAdjust="spacing" textLength="99" x="282.5" y="69.9951">AuthController</text><rect fill="#E2E2F0" height="30.2969" rx="2.5" ry="2.5" style="stroke:#181818;stroke-width:0.5;" width="113" x="275.5" y="391.625"></rect><text fill="#000000" font-family="sans-serif" font-size="14" lengthAdjust="spacing" textLength="99" x="282.5" y="411.6201">AuthController</text><rect fill="#E2E2F0" height="30.2969" rx="2.5" ry="2.5" style="stroke:#181818;stroke-width:0.5;" width="96" x="420" y="50"></rect><text fill="#000000" font-family="sans-serif" font-size="14" lengthAdjust="spacing" textLength="82" x="427" y="69.9951">AuthService</text><rect fill="#E2E2F0" height="30.2969" rx="2.5" ry="2.5" style="stroke:#181818;stroke-width:0.5;" width="96" x="420" y="391.625"></rect><text fill="#000000" font-family="sans-serif" font-size="14" lengthAdjust="spacing" textLength="82" x="427" y="411.6201">AuthService</text><rect fill="#E2E2F0" height="30.2969" rx="2.5" ry="2.5" style="stroke:#181818;stroke-width:0.5;" width="143" x="526" y="50"></rect><text fill="#000000" font-family="sans-serif" font-size="14" lengthAdjust="spacing" textLength="129" x="533" y="69.9951">CategoryController</text><rect fill="#E2E2F0" height="30.2969" rx="2.5" ry="2.5" style="stroke:#181818;stroke-width:0.5;" width="143" x="526" y="391.625"></rect><text fill="#000000" font-family="sans-serif" font-size="14" lengthAdjust="spacing" textLength="129" x="533" y="411.6201">CategoryController</text><rect fill="#E2E2F0" height="30.2969" rx="2.5" ry="2.5" style="stroke:#181818;stroke-width:0.5;" width="126" x="712.5" y="50"></rect><text fill="#000000" font-family="sans-serif" font-size="14" lengthAdjust="spacing" textLength="112" x="719.5" y="69.9951">CategoryService</text><rect fill="#E2E2F0" height="30.2969" rx="2.5" ry="2.5" style="stroke:#181818;stroke-width:0.5;" width="126" x="712.5" y="391.625"></rect><text fill="#000000" font-family="sans-serif" font-size="14" lengthAdjust="spacing" textLength="112" x="719.5" y="411.6201">CategoryService</text><rect fill="#E2E2F0" height="30.2969" rx="2.5" ry="2.5" style="stroke:#181818;stroke-width:0.5;" width="163" x="854" y="50"></rect><text fill="#000000" font-family="sans-serif" font-size="14" lengthAdjust="spacing" textLength="149" x="861" y="69.9951">ApplicationDbContext</text><rect fill="#E2E2F0" height="30.2969" rx="2.5" ry="2.5" style="stroke:#181818;stroke-width:0.5;" width="163" x="854" y="391.625"></rect><text fill="#000000" font-family="sans-serif" font-size="14" lengthAdjust="spacing" textLength="149" x="861" y="411.6201">ApplicationDbContext</text><rect fill="#FFFFFF" height="262.1953" style="stroke:#181818;stroke-width:1.0;" width="10" x="204" y="112.4297"></rect><rect fill="#FFFFFF" height="87.3984" style="stroke:#181818;stroke-width:1.0;" width="10" x="327" y="141.5625"></rect><rect fill="#FFFFFF" height="29.1328" style="stroke:#181818;stroke-width:1.0;" width="10" x="463" y="170.6953"></rect><rect fill="#FFFFFF" height="145.6641" style="stroke:#181818;stroke-width:1.0;" width="10" x="592.5" y="228.9609"></rect><rect fill="#FFFFFF" height="87.3984" style="stroke:#181818;stroke-width:1.0;" width="10" x="770.5" y="258.0938"></rect><rect fill="#FFFFFF" height="29.1328" style="stroke:#181818;stroke-width:1.0;" width="10" x="930.5" y="287.2266"></rect><polygon fill="#181818" points="192,108.4297,202,112.4297,192,116.4297,196,112.4297" style="stroke:#181818;stroke-width:1.0;"></polygon><line style="stroke:#181818;stroke-width:1.0;" x1="24" x2="198" y1="112.4297" y2="112.4297"></line><text fill="#000000" font-family="sans-serif" font-size="13" lengthAdjust="spacing" textLength="161" x="31" y="107.3638">Request Create Category</text><polygon fill="#181818" points="315,137.5625,325,141.5625,315,145.5625,319,141.5625" style="stroke:#181818;stroke-width:1.0;"></polygon><line style="stroke:#181818;stroke-width:1.0;" x1="214" x2="321" y1="141.5625" y2="141.5625"></line><text fill="#000000" font-family="sans-serif" font-size="13" lengthAdjust="spacing" textLength="94" x="221" y="136.4966">Request Token</text><polygon fill="#181818" points="451,166.6953,461,170.6953,451,174.6953,455,170.6953" style="stroke:#181818;stroke-width:1.0;"></polygon><line style="stroke:#181818;stroke-width:1.0;" x1="337" x2="457" y1="170.6953" y2="170.6953"></line><text fill="#000000" font-family="sans-serif" font-size="13" lengthAdjust="spacing" textLength="94" x="344" y="165.6294">Validate Token</text><polygon fill="#181818" points="348,195.8281,338,199.8281,348,203.8281,344,199.8281" style="stroke:#181818;stroke-width:1.0;"></polygon><line style="stroke:#181818;stroke-width:1.0;stroke-dasharray:2.0,2.0;" x1="342" x2="467" y1="199.8281" y2="199.8281"></line><text fill="#000000" font-family="sans-serif" font-size="13" lengthAdjust="spacing" textLength="102" x="354" y="194.7622">Token Validated</text><polygon fill="#181818" points="580.5,224.9609,590.5,228.9609,580.5,232.9609,584.5,228.9609" style="stroke:#181818;stroke-width:1.0;"></polygon><line style="stroke:#181818;stroke-width:1.0;" x1="332" x2="586.5" y1="228.9609" y2="228.9609"></line><text fill="#000000" font-family="sans-serif" font-size="13" lengthAdjust="spacing" textLength="134" x="339" y="223.895">POST /api/Categories</text><polygon fill="#181818" points="758.5,254.0938,768.5,258.0938,758.5,262.0938,762.5,258.0938" style="stroke:#181818;stroke-width:1.0;"></polygon><line style="stroke:#181818;stroke-width:1.0;" x1="602.5" x2="764.5" y1="258.0938" y2="258.0938"></line><text fill="#000000" font-family="sans-serif" font-size="13" lengthAdjust="spacing" textLength="149" x="609.5" y="253.0278">CreateAsync(Category)</text><polygon fill="#181818" points="918.5,283.2266,928.5,287.2266,918.5,291.2266,922.5,287.2266" style="stroke:#181818;stroke-width:1.0;"></polygon><line style="stroke:#181818;stroke-width:1.0;" x1="780.5" x2="924.5" y1="287.2266" y2="287.2266"></line><text fill="#000000" font-family="sans-serif" font-size="13" lengthAdjust="spacing" textLength="131" x="787.5" y="282.1606">AddAsync(Category)</text><polygon fill="#181818" points="791.5,312.3594,781.5,316.3594,791.5,320.3594,787.5,316.3594" style="stroke:#181818;stroke-width:1.0;"></polygon><line style="stroke:#181818;stroke-width:1.0;stroke-dasharray:2.0,2.0;" x1="785.5" x2="934.5" y1="316.3594" y2="316.3594"></line><text fill="#000000" font-family="sans-serif" font-size="13" lengthAdjust="spacing" textLength="53" x="797.5" y="311.2935">Success</text><polygon fill="#181818" points="613.5,341.4922,603.5,345.4922,613.5,349.4922,609.5,345.4922" style="stroke:#181818;stroke-width:1.0;"></polygon><line style="stroke:#181818;stroke-width:1.0;stroke-dasharray:2.0,2.0;" x1="607.5" x2="774.5" y1="345.4922" y2="345.4922"></line><text fill="#000000" font-family="sans-serif" font-size="13" lengthAdjust="spacing" textLength="113" x="619.5" y="340.4263">Category Created</text><polygon fill="#181818" points="220,370.625,210,374.625,220,378.625,216,374.625" style="stroke:#181818;stroke-width:1.0;"></polygon><line style="stroke:#181818;stroke-width:1.0;" x1="214" x2="596.5" y1="374.625" y2="374.625"></line><text fill="#000000" font-family="sans-serif" font-size="13" lengthAdjust="spacing" textLength="124" x="226" y="369.5591">Response Category</text><!--SRC=[TP8zJyGm38Rt_0hh9XXEjtT0gieEeWTxI2s8g99SafwuVmzDspGVlgdfw_Yr_JXSU6tXtQ5bXbilXJHSUJXqeqJb3y0TBCSyt4x-kzFAMpsEQCErNAglzsYlKc2yk_uNPRd7BsrlXNSjqsbfZK8h6Z9cb89xgTNpv-oAlykmL80nDWE2uzFAee4tl4peF7GM_yl4MemBBwz1MQ2nvJkdvdnsYxF-GRKd5XXP_hyPhKCryC57ESnvXCqsUNA68z59I8rE0nkGj25QgVVImEjBVuOJD_AqHYMwqZ8PS2TMxvZLMberGbYsqBgR4WzRyB5sZeCKGe1AxBs1TXZkkf8lXH83ywhdVX82NKw6V7jLitUuRzfA8rlZNG85sFYwdT7A9U-Qy4htb8Q3nny0]--></g></svg>