<!--?xml version="1.0" encoding="us-ascii" standalone="no"?--><svg xmlns="http://www.w3.org/2000/svg" xmlns:xlink="http://www.w3.org/1999/xlink" contentstyletype="text/css" height="636px" preserveAspectRatio="none" style="width:1018px;height:636px;background:#FFFFFF;" version="1.1" viewBox="0 0 1018 636" width="1018px" zoomAndPan="magnify"><defs></defs><g><rect fill="#FFFFFF" height="433.5313" style="stroke:#181818;stroke-width:1.0;" width="10" x="203" y="112.4297"></rect><rect fill="#FFFFFF" height="87.3984" style="stroke:#181818;stroke-width:1.0;" width="10" x="326" y="141.5625"></rect><rect fill="#FFFFFF" height="29.1328" style="stroke:#181818;stroke-width:1.0;" width="10" x="462" y="170.6953"></rect><rect fill="#FFFFFF" height="228.0625" style="stroke:#181818;stroke-width:1.0;" width="10" x="591.5" y="228.9609"></rect><rect fill="#FFFFFF" height="169.7969" style="stroke:#181818;stroke-width:1.0;" width="10" x="749.5" y="258.0938"></rect><rect fill="#FFFFFF" height="30" style="stroke:#181818;stroke-width:1.0;" width="10" x="749.5" y="500.9609"></rect><rect fill="#FFFFFF" height="29.1328" style="stroke:#181818;stroke-width:1.0;" width="10" x="914.5" y="287.2266"></rect><rect fill="#FFFFFF" height="29.1328" style="stroke:#181818;stroke-width:1.0;" width="10" x="914.5" y="369.625"></rect><rect fill="none" height="207.6016" style="stroke:#000000;stroke-width:1.5;" width="839.5" x="171.5" y="331.3594"></rect><line style="stroke:#181818;stroke-width:0.5;stroke-dasharray:5.0,5.0;" x1="24" x2="24" y1="81.2969" y2="555.9609"></line><line style="stroke:#181818;stroke-width:0.5;stroke-dasharray:5.0,5.0;" x1="207.5" x2="207.5" y1="81.2969" y2="555.9609"></line><line style="stroke:#181818;stroke-width:0.5;stroke-dasharray:5.0,5.0;" x1="330.5" x2="330.5" y1="81.2969" y2="555.9609"></line><line style="stroke:#181818;stroke-width:0.5;stroke-dasharray:5.0,5.0;" x1="467" x2="467" y1="81.2969" y2="555.9609"></line><line style="stroke:#181818;stroke-width:0.5;stroke-dasharray:5.0,5.0;" x1="596" x2="596" y1="81.2969" y2="555.9609"></line><line style="stroke:#181818;stroke-width:0.5;stroke-dasharray:5.0,5.0;" x1="754.5" x2="754.5" y1="81.2969" y2="555.9609"></line><line style="stroke:#181818;stroke-width:0.5;stroke-dasharray:5.0,5.0;" x1="919" x2="919" y1="81.2969" y2="555.9609"></line><text fill="#000000" font-family="sans-serif" font-size="14" lengthAdjust="spacing" textLength="32" x="5" y="77.9951">User</text><ellipse cx="24" cy="13.5" fill="#E2E2F0" rx="8" ry="8" style="stroke:#181818;stroke-width:0.5;"></ellipse><path d="M24,21.5 L24,48.5 M11,29.5 L37,29.5 M24,48.5 L11,63.5 M24,48.5 L37,63.5 " fill="none" style="stroke:#181818;stroke-width:0.5;"></path><text fill="#000000" font-family="sans-serif" font-size="14" lengthAdjust="spacing" textLength="32" x="5" y="567.9561">User</text><ellipse cx="24" cy="579.7578" fill="#E2E2F0" rx="8" ry="8" style="stroke:#181818;stroke-width:0.5;"></ellipse><path d="M24,587.7578 L24,614.7578 M11,595.7578 L37,595.7578 M24,614.7578 L11,629.7578 M24,614.7578 L37,629.7578 " fill="none" style="stroke:#181818;stroke-width:0.5;"></path><rect fill="#E2E2F0" height="30.2969" rx="2.5" ry="2.5" style="stroke:#181818;stroke-width:0.5;" width="53" x="181.5" y="50"></rect><text fill="#000000" font-family="sans-serif" font-size="14" lengthAdjust="spacing" textLength="39" x="188.5" y="69.9951">Client</text><rect fill="#E2E2F0" height="30.2969" rx="2.5" ry="2.5" style="stroke:#181818;stroke-width:0.5;" width="53" x="181.5" y="554.9609"></rect><text fill="#000000" font-family="sans-serif" font-size="14" lengthAdjust="spacing" textLength="39" x="188.5" y="574.9561">Client</text><rect fill="#E2E2F0" height="30.2969" rx="2.5" ry="2.5" style="stroke:#181818;stroke-width:0.5;" width="113" x="274.5" y="50"></rect><text fill="#000000" font-family="sans-serif" font-size="14" lengthAdjust="spacing" textLength="99" x="281.5" y="69.9951">AuthController</text><rect fill="#E2E2F0" height="30.2969" rx="2.5" ry="2.5" style="stroke:#181818;stroke-width:0.5;" width="113" x="274.5" y="554.9609"></rect><text fill="#000000" font-family="sans-serif" font-size="14" lengthAdjust="spacing" textLength="99" x="281.5" y="574.9561">AuthController</text><rect fill="#E2E2F0" height="30.2969" rx="2.5" ry="2.5" style="stroke:#181818;stroke-width:0.5;" width="96" x="419" y="50"></rect><text fill="#000000" font-family="sans-serif" font-size="14" lengthAdjust="spacing" textLength="82" x="426" y="69.9951">AuthService</text><rect fill="#E2E2F0" height="30.2969" rx="2.5" ry="2.5" style="stroke:#181818;stroke-width:0.5;" width="96" x="419" y="554.9609"></rect><text fill="#000000" font-family="sans-serif" font-size="14" lengthAdjust="spacing" textLength="82" x="426" y="574.9561">AuthService</text><rect fill="#E2E2F0" height="30.2969" rx="2.5" ry="2.5" style="stroke:#181818;stroke-width:0.5;" width="143" x="525" y="50"></rect><text fill="#000000" font-family="sans-serif" font-size="14" lengthAdjust="spacing" textLength="129" x="532" y="69.9951">CategoryController</text><rect fill="#E2E2F0" height="30.2969" rx="2.5" ry="2.5" style="stroke:#181818;stroke-width:0.5;" width="143" x="525" y="554.9609"></rect><text fill="#000000" font-family="sans-serif" font-size="14" lengthAdjust="spacing" textLength="129" x="532" y="574.9561">CategoryController</text><rect fill="#E2E2F0" height="30.2969" rx="2.5" ry="2.5" style="stroke:#181818;stroke-width:0.5;" width="126" x="691.5" y="50"></rect><text fill="#000000" font-family="sans-serif" font-size="14" lengthAdjust="spacing" textLength="112" x="698.5" y="69.9951">CategoryService</text><rect fill="#E2E2F0" height="30.2969" rx="2.5" ry="2.5" style="stroke:#181818;stroke-width:0.5;" width="126" x="691.5" y="554.9609"></rect><text fill="#000000" font-family="sans-serif" font-size="14" lengthAdjust="spacing" textLength="112" x="698.5" y="574.9561">CategoryService</text><rect fill="#E2E2F0" height="30.2969" rx="2.5" ry="2.5" style="stroke:#181818;stroke-width:0.5;" width="163" x="838" y="50"></rect><text fill="#000000" font-family="sans-serif" font-size="14" lengthAdjust="spacing" textLength="149" x="845" y="69.9951">ApplicationDbContext</text><rect fill="#E2E2F0" height="30.2969" rx="2.5" ry="2.5" style="stroke:#181818;stroke-width:0.5;" width="163" x="838" y="554.9609"></rect><text fill="#000000" font-family="sans-serif" font-size="14" lengthAdjust="spacing" textLength="149" x="845" y="574.9561">ApplicationDbContext</text><rect fill="#FFFFFF" height="433.5313" style="stroke:#181818;stroke-width:1.0;" width="10" x="203" y="112.4297"></rect><rect fill="#FFFFFF" height="87.3984" style="stroke:#181818;stroke-width:1.0;" width="10" x="326" y="141.5625"></rect><rect fill="#FFFFFF" height="29.1328" style="stroke:#181818;stroke-width:1.0;" width="10" x="462" y="170.6953"></rect><rect fill="#FFFFFF" height="228.0625" style="stroke:#181818;stroke-width:1.0;" width="10" x="591.5" y="228.9609"></rect><rect fill="#FFFFFF" height="169.7969" style="stroke:#181818;stroke-width:1.0;" width="10" x="749.5" y="258.0938"></rect><rect fill="#FFFFFF" height="30" style="stroke:#181818;stroke-width:1.0;" width="10" x="749.5" y="500.9609"></rect><rect fill="#FFFFFF" height="29.1328" style="stroke:#181818;stroke-width:1.0;" width="10" x="914.5" y="287.2266"></rect><rect fill="#FFFFFF" height="29.1328" style="stroke:#181818;stroke-width:1.0;" width="10" x="914.5" y="369.625"></rect><polygon fill="#181818" points="191,108.4297,201,112.4297,191,116.4297,195,112.4297" style="stroke:#181818;stroke-width:1.0;"></polygon><line style="stroke:#181818;stroke-width:1.0;" x1="24" x2="197" y1="112.4297" y2="112.4297"></line><text fill="#000000" font-family="sans-serif" font-size="13" lengthAdjust="spacing" textLength="160" x="31" y="107.3638">Request Delete Category</text><polygon fill="#181818" points="314,137.5625,324,141.5625,314,145.5625,318,141.5625" style="stroke:#181818;stroke-width:1.0;"></polygon><line style="stroke:#181818;stroke-width:1.0;" x1="213" x2="320" y1="141.5625" y2="141.5625"></line><text fill="#000000" font-family="sans-serif" font-size="13" lengthAdjust="spacing" textLength="94" x="220" y="136.4966">Request Token</text><polygon fill="#181818" points="450,166.6953,460,170.6953,450,174.6953,454,170.6953" style="stroke:#181818;stroke-width:1.0;"></polygon><line style="stroke:#181818;stroke-width:1.0;" x1="336" x2="456" y1="170.6953" y2="170.6953"></line><text fill="#000000" font-family="sans-serif" font-size="13" lengthAdjust="spacing" textLength="94" x="343" y="165.6294">Validate Token</text><polygon fill="#181818" points="347,195.8281,337,199.8281,347,203.8281,343,199.8281" style="stroke:#181818;stroke-width:1.0;"></polygon><line style="stroke:#181818;stroke-width:1.0;stroke-dasharray:2.0,2.0;" x1="341" x2="466" y1="199.8281" y2="199.8281"></line><text fill="#000000" font-family="sans-serif" font-size="13" lengthAdjust="spacing" textLength="102" x="353" y="194.7622">Token Validated</text><polygon fill="#181818" points="579.5,224.9609,589.5,228.9609,579.5,232.9609,583.5,228.9609" style="stroke:#181818;stroke-width:1.0;"></polygon><line style="stroke:#181818;stroke-width:1.0;" x1="331" x2="585.5" y1="228.9609" y2="228.9609"></line><text fill="#000000" font-family="sans-serif" font-size="13" lengthAdjust="spacing" textLength="148" x="338" y="223.895">DELETE /api/Categories</text><polygon fill="#181818" points="737.5,254.0938,747.5,258.0938,737.5,262.0938,741.5,258.0938" style="stroke:#181818;stroke-width:1.0;"></polygon><line style="stroke:#181818;stroke-width:1.0;" x1="601.5" x2="743.5" y1="258.0938" y2="258.0938"></line><text fill="#000000" font-family="sans-serif" font-size="13" lengthAdjust="spacing" textLength="129" x="608.5" y="253.0278">DeleteAsync(Name)</text><polygon fill="#181818" points="902.5,283.2266,912.5,287.2266,902.5,291.2266,906.5,287.2266" style="stroke:#181818;stroke-width:1.0;"></polygon><line style="stroke:#181818;stroke-width:1.0;" x1="759.5" x2="908.5" y1="287.2266" y2="287.2266"></line><text fill="#000000" font-family="sans-serif" font-size="13" lengthAdjust="spacing" textLength="136" x="766.5" y="282.1606">ReadByName(Name)</text><polygon fill="#181818" points="770.5,312.3594,760.5,316.3594,770.5,320.3594,766.5,316.3594" style="stroke:#181818;stroke-width:1.0;"></polygon><line style="stroke:#181818;stroke-width:1.0;stroke-dasharray:2.0,2.0;" x1="764.5" x2="918.5" y1="316.3594" y2="316.3594"></line><text fill="#000000" font-family="sans-serif" font-size="13" lengthAdjust="spacing" textLength="122" x="776.5" y="311.2935">Category Retrieved</text><path d="M171.5,331.3594 L235.5,331.3594 L235.5,338.4922 L225.5,348.4922 L171.5,348.4922 L171.5,331.3594 " fill="#EEEEEE" style="stroke:#000000;stroke-width:1.5;"></path><rect fill="none" height="207.6016" style="stroke:#000000;stroke-width:1.5;" width="839.5" x="171.5" y="331.3594"></rect><text fill="#000000" font-family="sans-serif" font-size="13" font-weight="bold" lengthAdjust="spacing" textLength="19" x="186.5" y="344.4263">alt</text><text fill="#000000" font-family="sans-serif" font-size="11" font-weight="bold" lengthAdjust="spacing" textLength="112" x="250.5" y="343.5698">[Category Found]</text><polygon fill="#181818" points="902.5,365.625,912.5,369.625,902.5,373.625,906.5,369.625" style="stroke:#181818;stroke-width:1.0;"></polygon><line style="stroke:#181818;stroke-width:1.0;" x1="759.5" x2="908.5" y1="369.625" y2="369.625"></line><text fill="#000000" font-family="sans-serif" font-size="13" lengthAdjust="spacing" textLength="110" x="766.5" y="364.5591">Delete(Category)</text><polygon fill="#181818" points="770.5,394.7578,760.5,398.7578,770.5,402.7578,766.5,398.7578" style="stroke:#181818;stroke-width:1.0;"></polygon><line style="stroke:#181818;stroke-width:1.0;stroke-dasharray:2.0,2.0;" x1="764.5" x2="918.5" y1="398.7578" y2="398.7578"></line><text fill="#000000" font-family="sans-serif" font-size="13" lengthAdjust="spacing" textLength="53" x="776.5" y="393.6919">Success</text><polygon fill="#181818" points="612.5,423.8906,602.5,427.8906,612.5,431.8906,608.5,427.8906" style="stroke:#181818;stroke-width:1.0;"></polygon><line style="stroke:#181818;stroke-width:1.0;stroke-dasharray:2.0,2.0;" x1="606.5" x2="753.5" y1="427.8906" y2="427.8906"></line><text fill="#000000" font-family="sans-serif" font-size="13" lengthAdjust="spacing" textLength="91" x="618.5" y="422.8247">Deletion Done</text><polygon fill="#181818" points="224,453.0234,214,457.0234,224,461.0234,220,457.0234" style="stroke:#181818;stroke-width:1.0;"></polygon><line style="stroke:#181818;stroke-width:1.0;" x1="218" x2="595.5" y1="457.0234" y2="457.0234"></line><text fill="#000000" font-family="sans-serif" font-size="13" lengthAdjust="spacing" textLength="157" x="230" y="451.9575">Response Deletion Done</text><line style="stroke:#000000;stroke-width:1.0;stroke-dasharray:2.0,2.0;" x1="171.5" x2="1011" y1="466.0234" y2="466.0234"></line><text fill="#000000" font-family="sans-serif" font-size="11" font-weight="bold" lengthAdjust="spacing" textLength="138" x="176.5" y="476.2339">[Category Not Found]</text><polygon fill="#181818" points="224,496.9609,214,500.9609,224,504.9609,220,500.9609" style="stroke:#181818;stroke-width:1.0;"></polygon><line style="stroke:#181818;stroke-width:1.0;" x1="218" x2="748.5" y1="500.9609" y2="500.9609"></line><text fill="#000000" font-family="sans-serif" font-size="13" lengthAdjust="spacing" textLength="94" x="230" y="495.895">Error message</text><!--SRC=[ZLGzRyCW4Dtv5QTCoH1rpr0fZTsfoj2atIa-fQW4NC1Hy-yB_iH0qtYn_RXxT-_TsPHPfU7De2OrrPOpNbDfOR4J7ALT03NGFSwFjutzt2bfjH82THisXzBm0-eBPpZ6zkzHMMhnfFGruaxXV5fO8yAYXkfQS4OjLxBuyApuqudD7H12l46mVkozsC0hVZTeB1GeqE9OYr1c-OLwf3EDT7UVElTdeZYgBvHJOcGZcRyFHBse3RnJmIkVbw4Pb0VFiCvqqgQEJ1MfC4kJQIMTomQAygKybl10Q_xGdtCqCMaWSV8idJ99iR3kQ4CtXwsvIhRSqpEkKjPHHWIqbcQcxYT4gwUhfuivirkI0rk_asu7m5MmpfnBv7bs1QcmKzwpQcH5m5rtY-aSMWxngpRxTaqVSR-eGyCO6jDc_Qics_fV2-KxT-bGA8anVJpTa3ZQcV7JDRMI1k_Z3NOHXPbms2jxUmn3lL9hzuSzEsle2UUkvvg_eGrTCH9kIbVY5m00]--></g></svg>