<!--?xml version="1.0" encoding="us-ascii" standalone="no"?--><svg xmlns="http://www.w3.org/2000/svg" xmlns:xlink="http://www.w3.org/1999/xlink" contentstyletype="text/css" height="561px" preserveAspectRatio="none" style="width:779px;height:561px;background:#FFFFFF;" version="1.1" viewBox="0 0 779 561" width="779px" zoomAndPan="magnify"><defs></defs><g><rect fill="#FFFFFF" height="358.2656" style="stroke:#181818;stroke-width:1.0;" width="10" x="143" y="112.4297"></rect><rect fill="#FFFFFF" height="140.6641" style="stroke:#181818;stroke-width:1.0;" width="10" x="315" y="141.5625"></rect><rect fill="#FFFFFF" height="129.5313" style="stroke:#181818;stroke-width:1.0;" width="10" x="315" y="326.1641"></rect><rect fill="#FFFFFF" height="111.5313" style="stroke:#181818;stroke-width:1.0;" width="10" x="518" y="170.6953"></rect><rect fill="#FFFFFF" height="100.3984" style="stroke:#181818;stroke-width:1.0;" width="10" x="518" y="326.1641"></rect><rect fill="#FFFFFF" height="29.1328" style="stroke:#181818;stroke-width:1.0;" width="10" x="680" y="199.8281"></rect><rect fill="#FFFFFF" height="29.1328" style="stroke:#181818;stroke-width:1.0;" width="10" x="680" y="326.1641"></rect><rect fill="none" height="219.7344" style="stroke:#000000;stroke-width:1.5;" width="661" x="111.5" y="243.9609"></rect><line style="stroke:#181818;stroke-width:0.5;stroke-dasharray:5.0,5.0;" x1="24" x2="24" y1="81.2969" y2="480.6953"></line><line style="stroke:#181818;stroke-width:0.5;stroke-dasharray:5.0,5.0;" x1="147.5" x2="147.5" y1="81.2969" y2="480.6953"></line><line style="stroke:#181818;stroke-width:0.5;stroke-dasharray:5.0,5.0;" x1="319.5" x2="319.5" y1="81.2969" y2="480.6953"></line><line style="stroke:#181818;stroke-width:0.5;stroke-dasharray:5.0,5.0;" x1="523" x2="523" y1="81.2969" y2="480.6953"></line><line style="stroke:#181818;stroke-width:0.5;stroke-dasharray:5.0,5.0;" x1="684.5" x2="684.5" y1="81.2969" y2="480.6953"></line><text fill="#000000" font-family="sans-serif" font-size="14" lengthAdjust="spacing" textLength="32" x="5" y="77.9951">User</text><ellipse cx="24" cy="13.5" fill="#E2E2F0" rx="8" ry="8" style="stroke:#181818;stroke-width:0.5;"></ellipse><path d="M24,21.5 L24,48.5 M11,29.5 L37,29.5 M24,48.5 L11,63.5 M24,48.5 L37,63.5 " fill="none" style="stroke:#181818;stroke-width:0.5;"></path><text fill="#000000" font-family="sans-serif" font-size="14" lengthAdjust="spacing" textLength="32" x="5" y="492.6904">User</text><ellipse cx="24" cy="504.4922" fill="#E2E2F0" rx="8" ry="8" style="stroke:#181818;stroke-width:0.5;"></ellipse><path d="M24,512.4922 L24,539.4922 M11,520.4922 L37,520.4922 M24,539.4922 L11,554.4922 M24,539.4922 L37,554.4922 " fill="none" style="stroke:#181818;stroke-width:0.5;"></path><rect fill="#E2E2F0" height="30.2969" rx="2.5" ry="2.5" style="stroke:#181818;stroke-width:0.5;" width="53" x="121.5" y="50"></rect><text fill="#000000" font-family="sans-serif" font-size="14" lengthAdjust="spacing" textLength="39" x="128.5" y="69.9951">Client</text><rect fill="#E2E2F0" height="30.2969" rx="2.5" ry="2.5" style="stroke:#181818;stroke-width:0.5;" width="53" x="121.5" y="479.6953"></rect><text fill="#000000" font-family="sans-serif" font-size="14" lengthAdjust="spacing" textLength="39" x="128.5" y="499.6904">Client</text><rect fill="#E2E2F0" height="30.2969" rx="2.5" ry="2.5" style="stroke:#181818;stroke-width:0.5;" width="113" x="263.5" y="50"></rect><text fill="#000000" font-family="sans-serif" font-size="14" lengthAdjust="spacing" textLength="99" x="270.5" y="69.9951">AuthController</text><rect fill="#E2E2F0" height="30.2969" rx="2.5" ry="2.5" style="stroke:#181818;stroke-width:0.5;" width="113" x="263.5" y="479.6953"></rect><text fill="#000000" font-family="sans-serif" font-size="14" lengthAdjust="spacing" textLength="99" x="270.5" y="499.6904">AuthController</text><rect fill="#E2E2F0" height="30.2969" rx="2.5" ry="2.5" style="stroke:#181818;stroke-width:0.5;" width="96" x="475" y="50"></rect><text fill="#000000" font-family="sans-serif" font-size="14" lengthAdjust="spacing" textLength="82" x="482" y="69.9951">AuthService</text><rect fill="#E2E2F0" height="30.2969" rx="2.5" ry="2.5" style="stroke:#181818;stroke-width:0.5;" width="96" x="475" y="479.6953"></rect><text fill="#000000" font-family="sans-serif" font-size="14" lengthAdjust="spacing" textLength="82" x="482" y="499.6904">AuthService</text><rect fill="#E2E2F0" height="30.2969" rx="2.5" ry="2.5" style="stroke:#181818;stroke-width:0.5;" width="155" x="607.5" y="50"></rect><text fill="#000000" font-family="sans-serif" font-size="14" lengthAdjust="spacing" textLength="141" x="614.5" y="69.9951">ASP.NETUserIdentity</text><rect fill="#E2E2F0" height="30.2969" rx="2.5" ry="2.5" style="stroke:#181818;stroke-width:0.5;" width="155" x="607.5" y="479.6953"></rect><text fill="#000000" font-family="sans-serif" font-size="14" lengthAdjust="spacing" textLength="141" x="614.5" y="499.6904">ASP.NETUserIdentity</text><rect fill="#FFFFFF" height="358.2656" style="stroke:#181818;stroke-width:1.0;" width="10" x="143" y="112.4297"></rect><rect fill="#FFFFFF" height="140.6641" style="stroke:#181818;stroke-width:1.0;" width="10" x="315" y="141.5625"></rect><rect fill="#FFFFFF" height="129.5313" style="stroke:#181818;stroke-width:1.0;" width="10" x="315" y="326.1641"></rect><rect fill="#FFFFFF" height="111.5313" style="stroke:#181818;stroke-width:1.0;" width="10" x="518" y="170.6953"></rect><rect fill="#FFFFFF" height="100.3984" style="stroke:#181818;stroke-width:1.0;" width="10" x="518" y="326.1641"></rect><rect fill="#FFFFFF" height="29.1328" style="stroke:#181818;stroke-width:1.0;" width="10" x="680" y="199.8281"></rect><rect fill="#FFFFFF" height="29.1328" style="stroke:#181818;stroke-width:1.0;" width="10" x="680" y="326.1641"></rect><polygon fill="#181818" points="131,108.4297,141,112.4297,131,116.4297,135,112.4297" style="stroke:#181818;stroke-width:1.0;"></polygon><line style="stroke:#181818;stroke-width:1.0;" x1="24" x2="137" y1="112.4297" y2="112.4297"></line><text fill="#000000" font-family="sans-serif" font-size="13" lengthAdjust="spacing" textLength="100" x="31" y="107.3638">Request Signup</text><polygon fill="#181818" points="303,137.5625,313,141.5625,303,145.5625,307,141.5625" style="stroke:#181818;stroke-width:1.0;"></polygon><line style="stroke:#181818;stroke-width:1.0;" x1="153" x2="309" y1="141.5625" y2="141.5625"></line><text fill="#000000" font-family="sans-serif" font-size="13" lengthAdjust="spacing" textLength="143" x="160" y="136.4966">POST /api/Auth/Signup</text><polygon fill="#181818" points="506,166.6953,516,170.6953,506,174.6953,510,170.6953" style="stroke:#181818;stroke-width:1.0;"></polygon><line style="stroke:#181818;stroke-width:1.0;" x1="325" x2="512" y1="170.6953" y2="170.6953"></line><text fill="#000000" font-family="sans-serif" font-size="13" lengthAdjust="spacing" textLength="174" x="332" y="165.6294">SignupAsync(SignupModel)</text><polygon fill="#181818" points="668,195.8281,678,199.8281,668,203.8281,672,199.8281" style="stroke:#181818;stroke-width:1.0;"></polygon><line style="stroke:#181818;stroke-width:1.0;" x1="528" x2="674" y1="199.8281" y2="199.8281"></line><text fill="#000000" font-family="sans-serif" font-size="13" lengthAdjust="spacing" textLength="119" x="535" y="194.7622">FindByNameAsync</text><polygon fill="#181818" points="539,224.9609,529,228.9609,539,232.9609,535,228.9609" style="stroke:#181818;stroke-width:1.0;"></polygon><line style="stroke:#181818;stroke-width:1.0;stroke-dasharray:2.0,2.0;" x1="533" x2="684" y1="228.9609" y2="228.9609"></line><text fill="#000000" font-family="sans-serif" font-size="13" lengthAdjust="spacing" textLength="30" x="545" y="223.895">User</text><path d="M111.5,243.9609 L175.5,243.9609 L175.5,251.0938 L165.5,261.0938 L111.5,261.0938 L111.5,243.9609 " fill="#EEEEEE" style="stroke:#000000;stroke-width:1.5;"></path><rect fill="none" height="219.7344" style="stroke:#000000;stroke-width:1.5;" width="661" x="111.5" y="243.9609"></rect><text fill="#000000" font-family="sans-serif" font-size="13" font-weight="bold" lengthAdjust="spacing" textLength="19" x="126.5" y="257.0278">alt</text><text fill="#000000" font-family="sans-serif" font-size="11" font-weight="bold" lengthAdjust="spacing" textLength="133" x="190.5" y="256.1714">[User Already Exists]</text><polygon fill="#181818" points="331,278.2266,321,282.2266,331,286.2266,327,282.2266" style="stroke:#181818;stroke-width:1.0;"></polygon><line style="stroke:#181818;stroke-width:1.0;stroke-dasharray:2.0,2.0;" x1="325" x2="522" y1="282.2266" y2="282.2266"></line><text fill="#000000" font-family="sans-serif" font-size="13" lengthAdjust="spacing" textLength="151" x="337" y="277.1606">Error User Already Exist</text><line style="stroke:#000000;stroke-width:1.0;stroke-dasharray:2.0,2.0;" x1="111.5" x2="772.5" y1="291.2266" y2="291.2266"></line><text fill="#000000" font-family="sans-serif" font-size="11" font-weight="bold" lengthAdjust="spacing" textLength="109" x="116.5" y="301.437">[User Not Found]</text><polygon fill="#181818" points="668,322.1641,678,326.1641,668,330.1641,672,326.1641" style="stroke:#181818;stroke-width:1.0;"></polygon><line style="stroke:#181818;stroke-width:1.0;" x1="528" x2="674" y1="326.1641" y2="326.1641"></line><text fill="#000000" font-family="sans-serif" font-size="13" lengthAdjust="spacing" textLength="95" x="535" y="321.0981">GetRolesAsync</text><polygon fill="#181818" points="539,351.2969,529,355.2969,539,359.2969,535,355.2969" style="stroke:#181818;stroke-width:1.0;"></polygon><line style="stroke:#181818;stroke-width:1.0;stroke-dasharray:2.0,2.0;" x1="533" x2="684" y1="355.2969" y2="355.2969"></line><text fill="#000000" font-family="sans-serif" font-size="13" lengthAdjust="spacing" textLength="34" x="545" y="350.231">Roles</text><line style="stroke:#181818;stroke-width:1.0;" x1="528" x2="570" y1="384.4297" y2="384.4297"></line><line style="stroke:#181818;stroke-width:1.0;" x1="570" x2="570" y1="384.4297" y2="397.4297"></line><line style="stroke:#181818;stroke-width:1.0;" x1="529" x2="570" y1="397.4297" y2="397.4297"></line><polygon fill="#181818" points="539,393.4297,529,397.4297,539,401.4297,535,397.4297" style="stroke:#181818;stroke-width:1.0;"></polygon><text fill="#000000" font-family="sans-serif" font-size="13" lengthAdjust="spacing" textLength="138" x="535" y="379.3638">CreateJwtToken(User)</text><polygon fill="#181818" points="336,422.5625,326,426.5625,336,430.5625,332,426.5625" style="stroke:#181818;stroke-width:1.0;"></polygon><line style="stroke:#181818;stroke-width:1.0;stroke-dasharray:2.0,2.0;" x1="330" x2="522" y1="426.5625" y2="426.5625"></line><text fill="#000000" font-family="sans-serif" font-size="13" lengthAdjust="spacing" textLength="63" x="342" y="421.4966">JWT Token</text><polygon fill="#181818" points="164,451.6953,154,455.6953,164,459.6953,160,455.6953" style="stroke:#181818;stroke-width:1.0;"></polygon><line style="stroke:#181818;stroke-width:1.0;stroke-dasharray:2.0,2.0;" x1="158" x2="319" y1="455.6953" y2="455.6953"></line><text fill="#000000" font-family="sans-serif" font-size="13" lengthAdjust="spacing" textLength="68" x="170" y="450.6294">AuthModel</text><!--SRC=[ZLCzRy8m4DtzAqvCC53s39KeWgf8fOYawcmbfzQgQwVsXJR_ljXEK9m4IfRuljwzUsVpdBI1Luk6bToGo4N95S5a9GKgcW2t48vnU5dHnqehCbfAD3ujTWtJKpH7aUCvjx5xYUd-RhVE79-dujHLK1qAXdx6d0Np-uPW0WVyhj0IfE9TLINZEOaZ9sm7OE7lAcAk2UnVqWmMl1GB5rdq0NgZiTXk0Pk1agR_qjOgduRpiovGpcB0TdxMCJpKSDG4Da8L3_MEVw67xI2D23FYWtcVf5zvWLU169Va4s4f3VAYXlMli6GPdBw8zeYcQsEQcnLN- -9kurZSaMYh54gB0N2d2JQwKWKRKhcWu2FIGKkqGJzNDTfZ4EXHkwgNvtAB-9x9ODHBYBtfka2hax24sn_Az2UggQkTtRITxLi6lkQQu6UaxcNlF3WNybVxdvsYMzI57XrtWFq3]--></g></svg>