<!--?xml version="1.0" encoding="us-ascii" standalone="no"?--><svg xmlns="http://www.w3.org/2000/svg" xmlns:xlink="http://www.w3.org/1999/xlink" contentstyletype="text/css" height="707px" preserveAspectRatio="none" style="width:1012px;height:707px;background:#FFFFFF;" version="1.1" viewBox="0 0 1012 707" width="1012px" zoomAndPan="magnify"><defs></defs><g><rect fill="#FFFFFF" height="503.9297" style="stroke:#181818;stroke-width:1.0;" width="10" x="268" y="112.4297"></rect><rect fill="#FFFFFF" height="386.7266" style="stroke:#181818;stroke-width:1.0;" width="10" x="494" y="141.5625"></rect><rect fill="#FFFFFF" height="29.1328" style="stroke:#181818;stroke-width:1.0;" width="10" x="494" y="572.2266"></rect><rect fill="#FFFFFF" height="430.6641" style="stroke:#181818;stroke-width:1.0;" width="10" x="751" y="170.6953"></rect><rect fill="#FFFFFF" height="34.1328" style="stroke:#181818;stroke-width:1.0;" width="10" x="756" y="465.0234"></rect><rect fill="#FFFFFF" height="29.1328" style="stroke:#181818;stroke-width:1.0;" width="10" x="913" y="199.8281"></rect><rect fill="#FFFFFF" height="29.1328" style="stroke:#181818;stroke-width:1.0;" width="10" x="913" y="282.2266"></rect><rect fill="#FFFFFF" height="29.1328" style="stroke:#181818;stroke-width:1.0;" width="10" x="913" y="340.4922"></rect><rect fill="#FFFFFF" height="29.1328" style="stroke:#181818;stroke-width:1.0;" width="10" x="913" y="398.7578"></rect><rect fill="none" height="365.3984" style="stroke:#000000;stroke-width:1.5;" width="769" x="236.5" y="243.9609"></rect><line style="stroke:#181818;stroke-width:0.5;stroke-dasharray:5.0,5.0;" x1="24" x2="24" y1="81.2969" y2="626.3594"></line><line style="stroke:#181818;stroke-width:0.5;stroke-dasharray:5.0,5.0;" x1="272.5" x2="272.5" y1="81.2969" y2="626.3594"></line><line style="stroke:#181818;stroke-width:0.5;stroke-dasharray:5.0,5.0;" x1="498.5" x2="498.5" y1="81.2969" y2="626.3594"></line><line style="stroke:#181818;stroke-width:0.5;stroke-dasharray:5.0,5.0;" x1="756" x2="756" y1="81.2969" y2="626.3594"></line><line style="stroke:#181818;stroke-width:0.5;stroke-dasharray:5.0,5.0;" x1="917.5" x2="917.5" y1="81.2969" y2="626.3594"></line><text fill="#000000" font-family="sans-serif" font-size="14" lengthAdjust="spacing" textLength="32" x="5" y="77.9951">User</text><ellipse cx="24" cy="13.5" fill="#E2E2F0" rx="8" ry="8" style="stroke:#181818;stroke-width:0.5;"></ellipse><path d="M24,21.5 L24,48.5 M11,29.5 L37,29.5 M24,48.5 L11,63.5 M24,48.5 L37,63.5 " fill="none" style="stroke:#181818;stroke-width:0.5;"></path><text fill="#000000" font-family="sans-serif" font-size="14" lengthAdjust="spacing" textLength="32" x="5" y="638.3545">User</text><ellipse cx="24" cy="650.1563" fill="#E2E2F0" rx="8" ry="8" style="stroke:#181818;stroke-width:0.5;"></ellipse><path d="M24,658.1563 L24,685.1563 M11,666.1563 L37,666.1563 M24,685.1563 L11,700.1563 M24,685.1563 L37,700.1563 " fill="none" style="stroke:#181818;stroke-width:0.5;"></path><rect fill="#E2E2F0" height="30.2969" rx="2.5" ry="2.5" style="stroke:#181818;stroke-width:0.5;" width="53" x="246.5" y="50"></rect><text fill="#000000" font-family="sans-serif" font-size="14" lengthAdjust="spacing" textLength="39" x="253.5" y="69.9951">Client</text><rect fill="#E2E2F0" height="30.2969" rx="2.5" ry="2.5" style="stroke:#181818;stroke-width:0.5;" width="53" x="246.5" y="625.3594"></rect><text fill="#000000" font-family="sans-serif" font-size="14" lengthAdjust="spacing" textLength="39" x="253.5" y="645.3545">Client</text><rect fill="#E2E2F0" height="30.2969" rx="2.5" ry="2.5" style="stroke:#181818;stroke-width:0.5;" width="113" x="442.5" y="50"></rect><text fill="#000000" font-family="sans-serif" font-size="14" lengthAdjust="spacing" textLength="99" x="449.5" y="69.9951">AuthController</text><rect fill="#E2E2F0" height="30.2969" rx="2.5" ry="2.5" style="stroke:#181818;stroke-width:0.5;" width="113" x="442.5" y="625.3594"></rect><text fill="#000000" font-family="sans-serif" font-size="14" lengthAdjust="spacing" textLength="99" x="449.5" y="645.3545">AuthController</text><rect fill="#E2E2F0" height="30.2969" rx="2.5" ry="2.5" style="stroke:#181818;stroke-width:0.5;" width="96" x="708" y="50"></rect><text fill="#000000" font-family="sans-serif" font-size="14" lengthAdjust="spacing" textLength="82" x="715" y="69.9951">AuthService</text><rect fill="#E2E2F0" height="30.2969" rx="2.5" ry="2.5" style="stroke:#181818;stroke-width:0.5;" width="96" x="708" y="625.3594"></rect><text fill="#000000" font-family="sans-serif" font-size="14" lengthAdjust="spacing" textLength="82" x="715" y="645.3545">AuthService</text><rect fill="#E2E2F0" height="30.2969" rx="2.5" ry="2.5" style="stroke:#181818;stroke-width:0.5;" width="155" x="840.5" y="50"></rect><text fill="#000000" font-family="sans-serif" font-size="14" lengthAdjust="spacing" textLength="141" x="847.5" y="69.9951">ASP.NETUserIdentity</text><rect fill="#E2E2F0" height="30.2969" rx="2.5" ry="2.5" style="stroke:#181818;stroke-width:0.5;" width="155" x="840.5" y="625.3594"></rect><text fill="#000000" font-family="sans-serif" font-size="14" lengthAdjust="spacing" textLength="141" x="847.5" y="645.3545">ASP.NETUserIdentity</text><rect fill="#FFFFFF" height="503.9297" style="stroke:#181818;stroke-width:1.0;" width="10" x="268" y="112.4297"></rect><rect fill="#FFFFFF" height="386.7266" style="stroke:#181818;stroke-width:1.0;" width="10" x="494" y="141.5625"></rect><rect fill="#FFFFFF" height="29.1328" style="stroke:#181818;stroke-width:1.0;" width="10" x="494" y="572.2266"></rect><rect fill="#FFFFFF" height="430.6641" style="stroke:#181818;stroke-width:1.0;" width="10" x="751" y="170.6953"></rect><rect fill="#FFFFFF" height="34.1328" style="stroke:#181818;stroke-width:1.0;" width="10" x="756" y="465.0234"></rect><rect fill="#FFFFFF" height="29.1328" style="stroke:#181818;stroke-width:1.0;" width="10" x="913" y="199.8281"></rect><rect fill="#FFFFFF" height="29.1328" style="stroke:#181818;stroke-width:1.0;" width="10" x="913" y="282.2266"></rect><rect fill="#FFFFFF" height="29.1328" style="stroke:#181818;stroke-width:1.0;" width="10" x="913" y="340.4922"></rect><rect fill="#FFFFFF" height="29.1328" style="stroke:#181818;stroke-width:1.0;" width="10" x="913" y="398.7578"></rect><polygon fill="#181818" points="256,108.4297,266,112.4297,256,116.4297,260,112.4297" style="stroke:#181818;stroke-width:1.0;"></polygon><line style="stroke:#181818;stroke-width:1.0;" x1="24" x2="262" y1="112.4297" y2="112.4297"></line><text fill="#000000" font-family="sans-serif" font-size="13" lengthAdjust="spacing" textLength="225" x="31" y="107.3638">Request Subscription to Be a Seller</text><polygon fill="#181818" points="482,137.5625,492,141.5625,482,145.5625,486,141.5625" style="stroke:#181818;stroke-width:1.0;"></polygon><line style="stroke:#181818;stroke-width:1.0;" x1="278" x2="488" y1="141.5625" y2="141.5625"></line><text fill="#000000" font-family="sans-serif" font-size="13" lengthAdjust="spacing" textLength="162" x="285" y="136.4966">POST /api/Auth/Subscribe</text><polygon fill="#181818" points="739,166.6953,749,170.6953,739,174.6953,743,170.6953" style="stroke:#181818;stroke-width:1.0;"></polygon><line style="stroke:#181818;stroke-width:1.0;" x1="504" x2="745" y1="170.6953" y2="170.6953"></line><text fill="#000000" font-family="sans-serif" font-size="13" lengthAdjust="spacing" textLength="228" x="511" y="165.6294">SupscripeAsync(SupscriptionModel)</text><polygon fill="#181818" points="901,195.8281,911,199.8281,901,203.8281,905,199.8281" style="stroke:#181818;stroke-width:1.0;"></polygon><line style="stroke:#181818;stroke-width:1.0;" x1="761" x2="907" y1="199.8281" y2="199.8281"></line><text fill="#000000" font-family="sans-serif" font-size="13" lengthAdjust="spacing" textLength="91" x="768" y="194.7622">FindByIdAsync</text><polygon fill="#181818" points="772,224.9609,762,228.9609,772,232.9609,768,228.9609" style="stroke:#181818;stroke-width:1.0;"></polygon><line style="stroke:#181818;stroke-width:1.0;stroke-dasharray:2.0,2.0;" x1="766" x2="917" y1="228.9609" y2="228.9609"></line><text fill="#000000" font-family="sans-serif" font-size="13" lengthAdjust="spacing" textLength="30" x="778" y="223.895">User</text><path d="M236.5,243.9609 L300.5,243.9609 L300.5,251.0938 L290.5,261.0938 L236.5,261.0938 L236.5,243.9609 " fill="#EEEEEE" style="stroke:#000000;stroke-width:1.5;"></path><rect fill="none" height="365.3984" style="stroke:#000000;stroke-width:1.5;" width="769" x="236.5" y="243.9609"></rect><text fill="#000000" font-family="sans-serif" font-size="13" font-weight="bold" lengthAdjust="spacing" textLength="19" x="251.5" y="257.0278">alt</text><text fill="#000000" font-family="sans-serif" font-size="11" font-weight="bold" lengthAdjust="spacing" textLength="83" x="315.5" y="256.1714">[User Found]</text><polygon fill="#181818" points="901,278.2266,911,282.2266,901,286.2266,905,282.2266" style="stroke:#181818;stroke-width:1.0;"></polygon><line style="stroke:#181818;stroke-width:1.0;" x1="761" x2="907" y1="282.2266" y2="282.2266"></line><text fill="#000000" font-family="sans-serif" font-size="13" lengthAdjust="spacing" textLength="102" x="768" y="277.1606">RoleExistsAsync</text><polygon fill="#181818" points="772,307.3594,762,311.3594,772,315.3594,768,311.3594" style="stroke:#181818;stroke-width:1.0;"></polygon><line style="stroke:#181818;stroke-width:1.0;stroke-dasharray:2.0,2.0;" x1="766" x2="917" y1="311.3594" y2="311.3594"></line><text fill="#000000" font-family="sans-serif" font-size="13" lengthAdjust="spacing" textLength="64" x="778" y="306.2935">RoleExists</text><polygon fill="#181818" points="901,336.4922,911,340.4922,901,344.4922,905,340.4922" style="stroke:#181818;stroke-width:1.0;"></polygon><line style="stroke:#181818;stroke-width:1.0;" x1="761" x2="907" y1="340.4922" y2="340.4922"></line><text fill="#000000" font-family="sans-serif" font-size="13" lengthAdjust="spacing" textLength="86" x="768" y="335.4263">IsInRoleAsync</text><polygon fill="#181818" points="772,365.625,762,369.625,772,373.625,768,369.625" style="stroke:#181818;stroke-width:1.0;"></polygon><line style="stroke:#181818;stroke-width:1.0;stroke-dasharray:2.0,2.0;" x1="766" x2="917" y1="369.625" y2="369.625"></line><text fill="#000000" font-family="sans-serif" font-size="13" lengthAdjust="spacing" textLength="48" x="778" y="364.5591">IsInRole</text><polygon fill="#181818" points="901,394.7578,911,398.7578,901,402.7578,905,398.7578" style="stroke:#181818;stroke-width:1.0;"></polygon><line style="stroke:#181818;stroke-width:1.0;" x1="761" x2="907" y1="398.7578" y2="398.7578"></line><text fill="#000000" font-family="sans-serif" font-size="13" lengthAdjust="spacing" textLength="105" x="768" y="393.6919">AddToRoleAsync</text><polygon fill="#181818" points="772,423.8906,762,427.8906,772,431.8906,768,427.8906" style="stroke:#181818;stroke-width:1.0;"></polygon><line style="stroke:#181818;stroke-width:1.0;stroke-dasharray:2.0,2.0;" x1="766" x2="917" y1="427.8906" y2="427.8906"></line><text fill="#000000" font-family="sans-serif" font-size="13" lengthAdjust="spacing" textLength="39" x="778" y="422.8247">Result</text><line style="stroke:#181818;stroke-width:1.0;" x1="761" x2="808" y1="452.0234" y2="452.0234"></line><line style="stroke:#181818;stroke-width:1.0;" x1="808" x2="808" y1="452.0234" y2="465.0234"></line><line style="stroke:#181818;stroke-width:1.0;" x1="767" x2="808" y1="465.0234" y2="465.0234"></line><polygon fill="#181818" points="777,461.0234,767,465.0234,777,469.0234,773,465.0234" style="stroke:#181818;stroke-width:1.0;"></polygon><text fill="#000000" font-family="sans-serif" font-size="13" lengthAdjust="spacing" textLength="138" x="773" y="446.9575">CreateJwtToken(User)</text><polygon fill="#181818" points="515,495.1563,505,499.1563,515,503.1563,511,499.1563" style="stroke:#181818;stroke-width:1.0;"></polygon><line style="stroke:#181818;stroke-width:1.0;stroke-dasharray:2.0,2.0;" x1="509" x2="750" y1="499.1563" y2="499.1563"></line><text fill="#000000" font-family="sans-serif" font-size="13" lengthAdjust="spacing" textLength="63" x="521" y="494.0903">JWT Token</text><polygon fill="#181818" points="289,524.2891,279,528.2891,289,532.2891,285,528.2891" style="stroke:#181818;stroke-width:1.0;"></polygon><line style="stroke:#181818;stroke-width:1.0;stroke-dasharray:2.0,2.0;" x1="283" x2="498" y1="528.2891" y2="528.2891"></line><text fill="#000000" font-family="sans-serif" font-size="13" lengthAdjust="spacing" textLength="116" x="295" y="523.2231">Success message</text><line style="stroke:#000000;stroke-width:1.0;stroke-dasharray:2.0,2.0;" x1="236.5" x2="1005.5" y1="537.2891" y2="537.2891"></line><text fill="#000000" font-family="sans-serif" font-size="11" font-weight="bold" lengthAdjust="spacing" textLength="205" x="241.5" y="547.4995">[User Not Found or Role Invalid]</text><polygon fill="#181818" points="515,568.2266,505,572.2266,515,576.2266,511,572.2266" style="stroke:#181818;stroke-width:1.0;"></polygon><line style="stroke:#181818;stroke-width:1.0;stroke-dasharray:2.0,2.0;" x1="509" x2="750" y1="572.2266" y2="572.2266"></line><text fill="#000000" font-family="sans-serif" font-size="13" lengthAdjust="spacing" textLength="192" x="521" y="567.1606">User Not Found or Role Invalid</text><polygon fill="#181818" points="289,597.3594,279,601.3594,289,605.3594,285,601.3594" style="stroke:#181818;stroke-width:1.0;"></polygon><line style="stroke:#181818;stroke-width:1.0;stroke-dasharray:2.0,2.0;" x1="283" x2="498" y1="601.3594" y2="601.3594"></line><text fill="#000000" font-family="sans-serif" font-size="13" lengthAdjust="spacing" textLength="192" x="295" y="596.2935">User Not Found or Role Invalid</text><!--SRC=[jPHDJyCm343l-HNMJd20tNj06XD8HM9CQn7dq5WG4PBIk8FzUvgqPUd7jWh13jkSsg_FLbsUaIdWqMB1SbwGp6JEDS5igIHgcW6tKF_jNbwKzBeqcWgZ51O-hNiqJ4-msCeCVtARk9UOh2zNDwdpYKLrLqcxkc1upfYBuEAg4OnWWnybMeAaVBPP8NEIHWCPk4RWaA3NuXd9BITiksBrhyDq6uXW_P2aCEUvdBihyuRwZ7j6hsNMZLjcqsXKUUNU2nTsfxEpDdIQzqQWEk-Ism6n8F3CuImYk9LQNEzYuT41PsHk8sTmqNVrJuJ0eo365Vb4k3Mb5WogpnJNZL5uyoKjsThMrHszaGTFiTwJVSqf_wd2iOsrG_-rRilzKzc54Adv3ziDsbBHhrr3rBB0glRkarBpXlhC5P_tJ8C56D16blNkAGKF6_Y5czIImYKDNY19cMLeBRnNN_m5nr31kgEoM3_-AqFr2a3rBdMZXrXlkP9YWZf4KnY778usD0rzO5OdUg_MdHse38vhZsy0]--></g></svg>