<!--?xml version="1.0" encoding="us-ascii" standalone="no"?--><svg xmlns="http://www.w3.org/2000/svg" xmlns:xlink="http://www.w3.org/1999/xlink" contentstyletype="text/css" height="635px" preserveAspectRatio="none" style="width:1161px;height:635px;background:#FFFFFF;" version="1.1" viewBox="0 0 1161 635" width="1161px" zoomAndPan="magnify"><defs></defs><g><rect fill="#FFFFFF" height="432.6641" style="stroke:#181818;stroke-width:1.0;" width="10" x="208" y="112.4297"></rect><rect fill="#FFFFFF" height="87.3984" style="stroke:#181818;stroke-width:1.0;" width="10" x="331" y="141.5625"></rect><rect fill="#FFFFFF" height="29.1328" style="stroke:#181818;stroke-width:1.0;" width="10" x="467" y="170.6953"></rect><rect fill="#FFFFFF" height="228.0625" style="stroke:#181818;stroke-width:1.0;" width="10" x="596.5" y="228.9609"></rect><rect fill="#FFFFFF" height="29.1328" style="stroke:#181818;stroke-width:1.0;" width="10" x="596.5" y="500.9609"></rect><rect fill="#FFFFFF" height="169.7969" style="stroke:#181818;stroke-width:1.0;" width="10" x="848.5" y="258.0938"></rect><rect fill="#FFFFFF" height="29.1328" style="stroke:#181818;stroke-width:1.0;" width="10" x="848.5" y="500.9609"></rect><rect fill="#FFFFFF" height="29.1328" style="stroke:#181818;stroke-width:1.0;" width="10" x="1057.5" y="287.2266"></rect><rect fill="#FFFFFF" height="29.1328" style="stroke:#181818;stroke-width:1.0;" width="10" x="1057.5" y="369.625"></rect><rect fill="none" height="206.7344" style="stroke:#000000;stroke-width:1.5;" width="977.5" x="176.5" y="331.3594"></rect><line style="stroke:#181818;stroke-width:0.5;stroke-dasharray:5.0,5.0;" x1="24" x2="24" y1="81.2969" y2="555.0938"></line><line style="stroke:#181818;stroke-width:0.5;stroke-dasharray:5.0,5.0;" x1="212.5" x2="212.5" y1="81.2969" y2="555.0938"></line><line style="stroke:#181818;stroke-width:0.5;stroke-dasharray:5.0,5.0;" x1="335.5" x2="335.5" y1="81.2969" y2="555.0938"></line><line style="stroke:#181818;stroke-width:0.5;stroke-dasharray:5.0,5.0;" x1="472" x2="472" y1="81.2969" y2="555.0938"></line><line style="stroke:#181818;stroke-width:0.5;stroke-dasharray:5.0,5.0;" x1="601" x2="601" y1="81.2969" y2="555.0938"></line><line style="stroke:#181818;stroke-width:0.5;stroke-dasharray:5.0,5.0;" x1="853.5" x2="853.5" y1="81.2969" y2="555.0938"></line><line style="stroke:#181818;stroke-width:0.5;stroke-dasharray:5.0,5.0;" x1="1062" x2="1062" y1="81.2969" y2="555.0938"></line><text fill="#000000" font-family="sans-serif" font-size="14" lengthAdjust="spacing" textLength="32" x="5" y="77.9951">User</text><ellipse cx="24" cy="13.5" fill="#E2E2F0" rx="8" ry="8" style="stroke:#181818;stroke-width:0.5;"></ellipse><path d="M24,21.5 L24,48.5 M11,29.5 L37,29.5 M24,48.5 L11,63.5 M24,48.5 L37,63.5 " fill="none" style="stroke:#181818;stroke-width:0.5;"></path><text fill="#000000" font-family="sans-serif" font-size="14" lengthAdjust="spacing" textLength="32" x="5" y="567.0889">User</text><ellipse cx="24" cy="578.8906" fill="#E2E2F0" rx="8" ry="8" style="stroke:#181818;stroke-width:0.5;"></ellipse><path d="M24,586.8906 L24,613.8906 M11,594.8906 L37,594.8906 M24,613.8906 L11,628.8906 M24,613.8906 L37,628.8906 " fill="none" style="stroke:#181818;stroke-width:0.5;"></path><rect fill="#E2E2F0" height="30.2969" rx="2.5" ry="2.5" style="stroke:#181818;stroke-width:0.5;" width="53" x="186.5" y="50"></rect><text fill="#000000" font-family="sans-serif" font-size="14" lengthAdjust="spacing" textLength="39" x="193.5" y="69.9951">Client</text><rect fill="#E2E2F0" height="30.2969" rx="2.5" ry="2.5" style="stroke:#181818;stroke-width:0.5;" width="53" x="186.5" y="554.0938"></rect><text fill="#000000" font-family="sans-serif" font-size="14" lengthAdjust="spacing" textLength="39" x="193.5" y="574.0889">Client</text><rect fill="#E2E2F0" height="30.2969" rx="2.5" ry="2.5" style="stroke:#181818;stroke-width:0.5;" width="113" x="279.5" y="50"></rect><text fill="#000000" font-family="sans-serif" font-size="14" lengthAdjust="spacing" textLength="99" x="286.5" y="69.9951">AuthController</text><rect fill="#E2E2F0" height="30.2969" rx="2.5" ry="2.5" style="stroke:#181818;stroke-width:0.5;" width="113" x="279.5" y="554.0938"></rect><text fill="#000000" font-family="sans-serif" font-size="14" lengthAdjust="spacing" textLength="99" x="286.5" y="574.0889">AuthController</text><rect fill="#E2E2F0" height="30.2969" rx="2.5" ry="2.5" style="stroke:#181818;stroke-width:0.5;" width="96" x="424" y="50"></rect><text fill="#000000" font-family="sans-serif" font-size="14" lengthAdjust="spacing" textLength="82" x="431" y="69.9951">AuthService</text><rect fill="#E2E2F0" height="30.2969" rx="2.5" ry="2.5" style="stroke:#181818;stroke-width:0.5;" width="96" x="424" y="554.0938"></rect><text fill="#000000" font-family="sans-serif" font-size="14" lengthAdjust="spacing" textLength="82" x="431" y="574.0889">AuthService</text><rect fill="#E2E2F0" height="30.2969" rx="2.5" ry="2.5" style="stroke:#181818;stroke-width:0.5;" width="143" x="530" y="50"></rect><text fill="#000000" font-family="sans-serif" font-size="14" lengthAdjust="spacing" textLength="129" x="537" y="69.9951">CategoryController</text><rect fill="#E2E2F0" height="30.2969" rx="2.5" ry="2.5" style="stroke:#181818;stroke-width:0.5;" width="143" x="530" y="554.0938"></rect><text fill="#000000" font-family="sans-serif" font-size="14" lengthAdjust="spacing" textLength="129" x="537" y="574.0889">CategoryController</text><rect fill="#E2E2F0" height="30.2969" rx="2.5" ry="2.5" style="stroke:#181818;stroke-width:0.5;" width="126" x="790.5" y="50"></rect><text fill="#000000" font-family="sans-serif" font-size="14" lengthAdjust="spacing" textLength="112" x="797.5" y="69.9951">CategoryService</text><rect fill="#E2E2F0" height="30.2969" rx="2.5" ry="2.5" style="stroke:#181818;stroke-width:0.5;" width="126" x="790.5" y="554.0938"></rect><text fill="#000000" font-family="sans-serif" font-size="14" lengthAdjust="spacing" textLength="112" x="797.5" y="574.0889">CategoryService</text><rect fill="#E2E2F0" height="30.2969" rx="2.5" ry="2.5" style="stroke:#181818;stroke-width:0.5;" width="163" x="981" y="50"></rect><text fill="#000000" font-family="sans-serif" font-size="14" lengthAdjust="spacing" textLength="149" x="988" y="69.9951">ApplicationDbContext</text><rect fill="#E2E2F0" height="30.2969" rx="2.5" ry="2.5" style="stroke:#181818;stroke-width:0.5;" width="163" x="981" y="554.0938"></rect><text fill="#000000" font-family="sans-serif" font-size="14" lengthAdjust="spacing" textLength="149" x="988" y="574.0889">ApplicationDbContext</text><rect fill="#FFFFFF" height="432.6641" style="stroke:#181818;stroke-width:1.0;" width="10" x="208" y="112.4297"></rect><rect fill="#FFFFFF" height="87.3984" style="stroke:#181818;stroke-width:1.0;" width="10" x="331" y="141.5625"></rect><rect fill="#FFFFFF" height="29.1328" style="stroke:#181818;stroke-width:1.0;" width="10" x="467" y="170.6953"></rect><rect fill="#FFFFFF" height="228.0625" style="stroke:#181818;stroke-width:1.0;" width="10" x="596.5" y="228.9609"></rect><rect fill="#FFFFFF" height="29.1328" style="stroke:#181818;stroke-width:1.0;" width="10" x="596.5" y="500.9609"></rect><rect fill="#FFFFFF" height="169.7969" style="stroke:#181818;stroke-width:1.0;" width="10" x="848.5" y="258.0938"></rect><rect fill="#FFFFFF" height="29.1328" style="stroke:#181818;stroke-width:1.0;" width="10" x="848.5" y="500.9609"></rect><rect fill="#FFFFFF" height="29.1328" style="stroke:#181818;stroke-width:1.0;" width="10" x="1057.5" y="287.2266"></rect><rect fill="#FFFFFF" height="29.1328" style="stroke:#181818;stroke-width:1.0;" width="10" x="1057.5" y="369.625"></rect><polygon fill="#181818" points="196,108.4297,206,112.4297,196,116.4297,200,112.4297" style="stroke:#181818;stroke-width:1.0;"></polygon><line style="stroke:#181818;stroke-width:1.0;" x1="24" x2="202" y1="112.4297" y2="112.4297"></line><text fill="#000000" font-family="sans-serif" font-size="13" lengthAdjust="spacing" textLength="165" x="31" y="107.3638">Request Update Category</text><polygon fill="#181818" points="319,137.5625,329,141.5625,319,145.5625,323,141.5625" style="stroke:#181818;stroke-width:1.0;"></polygon><line style="stroke:#181818;stroke-width:1.0;" x1="218" x2="325" y1="141.5625" y2="141.5625"></line><text fill="#000000" font-family="sans-serif" font-size="13" lengthAdjust="spacing" textLength="94" x="225" y="136.4966">Request Token</text><polygon fill="#181818" points="455,166.6953,465,170.6953,455,174.6953,459,170.6953" style="stroke:#181818;stroke-width:1.0;"></polygon><line style="stroke:#181818;stroke-width:1.0;" x1="341" x2="461" y1="170.6953" y2="170.6953"></line><text fill="#000000" font-family="sans-serif" font-size="13" lengthAdjust="spacing" textLength="94" x="348" y="165.6294">Validate Token</text><polygon fill="#181818" points="352,195.8281,342,199.8281,352,203.8281,348,199.8281" style="stroke:#181818;stroke-width:1.0;"></polygon><line style="stroke:#181818;stroke-width:1.0;stroke-dasharray:2.0,2.0;" x1="346" x2="471" y1="199.8281" y2="199.8281"></line><text fill="#000000" font-family="sans-serif" font-size="13" lengthAdjust="spacing" textLength="102" x="358" y="194.7622">Token Validated</text><polygon fill="#181818" points="584.5,224.9609,594.5,228.9609,584.5,232.9609,588.5,228.9609" style="stroke:#181818;stroke-width:1.0;"></polygon><line style="stroke:#181818;stroke-width:1.0;" x1="336" x2="590.5" y1="228.9609" y2="228.9609"></line><text fill="#000000" font-family="sans-serif" font-size="13" lengthAdjust="spacing" textLength="125" x="343" y="223.895">PUT /api/Categories</text><polygon fill="#181818" points="836.5,254.0938,846.5,258.0938,836.5,262.0938,840.5,258.0938" style="stroke:#181818;stroke-width:1.0;"></polygon><line style="stroke:#181818;stroke-width:1.0;" x1="606.5" x2="842.5" y1="258.0938" y2="258.0938"></line><text fill="#000000" font-family="sans-serif" font-size="13" lengthAdjust="spacing" textLength="223" x="613.5" y="253.0278">UpdateAsync(CategoryUpdateDto)</text><polygon fill="#181818" points="1045.5,283.2266,1055.5,287.2266,1045.5,291.2266,1049.5,287.2266" style="stroke:#181818;stroke-width:1.0;"></polygon><line style="stroke:#181818;stroke-width:1.0;" x1="858.5" x2="1051.5" y1="287.2266" y2="287.2266"></line><text fill="#000000" font-family="sans-serif" font-size="13" lengthAdjust="spacing" textLength="180" x="865.5" y="282.1606">ReadByName(model.Name)</text><polygon fill="#181818" points="869.5,312.3594,859.5,316.3594,869.5,320.3594,865.5,316.3594" style="stroke:#181818;stroke-width:1.0;"></polygon><line style="stroke:#181818;stroke-width:1.0;stroke-dasharray:2.0,2.0;" x1="863.5" x2="1061.5" y1="316.3594" y2="316.3594"></line><text fill="#000000" font-family="sans-serif" font-size="13" lengthAdjust="spacing" textLength="122" x="875.5" y="311.2935">Category Retrieved</text><path d="M176.5,331.3594 L240.5,331.3594 L240.5,338.4922 L230.5,348.4922 L176.5,348.4922 L176.5,331.3594 " fill="#EEEEEE" style="stroke:#000000;stroke-width:1.5;"></path><rect fill="none" height="206.7344" style="stroke:#000000;stroke-width:1.5;" width="977.5" x="176.5" y="331.3594"></rect><text fill="#000000" font-family="sans-serif" font-size="13" font-weight="bold" lengthAdjust="spacing" textLength="19" x="191.5" y="344.4263">alt</text><text fill="#000000" font-family="sans-serif" font-size="11" font-weight="bold" lengthAdjust="spacing" textLength="112" x="255.5" y="343.5698">[Category Found]</text><polygon fill="#181818" points="1045.5,365.625,1055.5,369.625,1045.5,373.625,1049.5,369.625" style="stroke:#181818;stroke-width:1.0;"></polygon><line style="stroke:#181818;stroke-width:1.0;" x1="858.5" x2="1051.5" y1="369.625" y2="369.625"></line><text fill="#000000" font-family="sans-serif" font-size="13" lengthAdjust="spacing" textLength="115" x="865.5" y="364.5591">Update(Category)</text><polygon fill="#181818" points="869.5,394.7578,859.5,398.7578,869.5,402.7578,865.5,398.7578" style="stroke:#181818;stroke-width:1.0;"></polygon><line style="stroke:#181818;stroke-width:1.0;stroke-dasharray:2.0,2.0;" x1="863.5" x2="1061.5" y1="398.7578" y2="398.7578"></line><text fill="#000000" font-family="sans-serif" font-size="13" lengthAdjust="spacing" textLength="53" x="875.5" y="393.6919">Success</text><polygon fill="#181818" points="617.5,423.8906,607.5,427.8906,617.5,431.8906,613.5,427.8906" style="stroke:#181818;stroke-width:1.0;"></polygon><line style="stroke:#181818;stroke-width:1.0;stroke-dasharray:2.0,2.0;" x1="611.5" x2="852.5" y1="427.8906" y2="427.8906"></line><text fill="#000000" font-family="sans-serif" font-size="13" lengthAdjust="spacing" textLength="117" x="623.5" y="422.8247">Category Updated</text><polygon fill="#181818" points="229,453.0234,219,457.0234,229,461.0234,225,457.0234" style="stroke:#181818;stroke-width:1.0;"></polygon><line style="stroke:#181818;stroke-width:1.0;" x1="223" x2="600.5" y1="457.0234" y2="457.0234"></line><text fill="#000000" font-family="sans-serif" font-size="13" lengthAdjust="spacing" textLength="124" x="235" y="451.9575">Response Category</text><line style="stroke:#000000;stroke-width:1.0;stroke-dasharray:2.0,2.0;" x1="176.5" x2="1154" y1="466.0234" y2="466.0234"></line><text fill="#000000" font-family="sans-serif" font-size="11" font-weight="bold" lengthAdjust="spacing" textLength="138" x="181.5" y="476.2339">[Category Not Found]</text><polygon fill="#181818" points="617.5,496.9609,607.5,500.9609,617.5,504.9609,613.5,500.9609" style="stroke:#181818;stroke-width:1.0;"></polygon><line style="stroke:#181818;stroke-width:1.0;" x1="611.5" x2="847.5" y1="500.9609" y2="500.9609"></line><text fill="#000000" font-family="sans-serif" font-size="13" lengthAdjust="spacing" textLength="123" x="623.5" y="495.895">Category not found</text><polygon fill="#181818" points="229,526.0938,219,530.0938,229,534.0938,225,530.0938" style="stroke:#181818;stroke-width:1.0;"></polygon><line style="stroke:#181818;stroke-width:1.0;" x1="223" x2="600.5" y1="530.0938" y2="530.0938"></line><text fill="#000000" font-family="sans-serif" font-size="13" lengthAdjust="spacing" textLength="123" x="235" y="525.0278">Category not found</text><!--SRC=[ZLDDSy8W5BppAnXFUh3UFNJ6wlJeTAhsJibhouX0WJZrtpU1X122YRc4l8_Tj_i8eLPgV3AWaIBQCieK4HRFjfo1i3DC3FR7VdfJsf-j55PBpa6xidveM7u0VMKKGctpdT0I2zzItnBiOJZV5dCaiMGWfJYZn38fTfyrAlnviRa4GgWs22-V6o_M-1r-Ip0MdrHHqGGkHAXbLnVnfY7_hblx_dGGHta6qJKcDgB-TmlKY5hZ3yAP6o43qogFpdYPcSIr1gG25P25oOmotCiQlvsEU4KKMpL91YP5ZFHrXWrNF0p5dC42luEDkGawRvC-jhDoCMG8UfA0ypQp_dfLf7YvxSa5vXTP07-gZn5ozjBaWix-WO0sKF7OogvhieBiZIJSTdsliXG5mjNpi2HlKF1huRh7EUkAnqKTIah16DSrgIOx-ftx5LHx2KNAaAuvnavkKlYPZPB2HB_n7SZeRWAFwl5Usl4bP0Q8b8Yg_IkqZoePcsbAwNtA2VichAX0q7X9d7MZ_0C0]--></g></svg>